<?xml version="1.0" encoding="UTF-8" standalone="no"?>
<!-- Created with Inkscape (http://www.inkscape.org/) -->

<svg
   xmlns:dc="http://purl.org/dc/elements/1.1/"
   xmlns:cc="http://creativecommons.org/ns#"
   xmlns:rdf="http://www.w3.org/1999/02/22-rdf-syntax-ns#"
   xmlns:svg="http://www.w3.org/2000/svg"
   xmlns="http://www.w3.org/2000/svg"
   version="1.1"
   width="45"
   height="12.03125"
   id="svg7770">
  <defs
     id="defs7772" />
  <metadata
     id="metadata7775">
    <rdf:RDF>
      <cc:Work
         rdf:about="">
        <dc:format>image/svg+xml</dc:format>
        <dc:type
           rdf:resource="http://purl.org/dc/dcmitype/StillImage" />
        <dc:title></dc:title>
      </cc:Work>
    </rdf:RDF>
  </metadata>
  <g
     transform="translate(-352.5,-526.34375)"
     id="layer1">
    <g
       transform="matrix(0.25040483,0,0,0.24701161,385.76771,526.37201)"
       id="g7524"
       style="fill:#ffffff;fill-opacity:1;stroke:#babdb6;stroke-width:1.53497565;stroke-opacity:1">
      <path
         d="m 22,9 c -2.208,0 -4,1.792 -4,4 0,0.885 0.294,1.712 0.781,2.375 C 16.829,16.497 15.5,18.588 15.5,21 c 0,2.034 0.942,3.839 2.406,5.031 C 14.907,27.089 10.5,31.578 10.5,39.5 l 23,0 C 33.5,31.578 29.093,27.089 26.094,26.031 27.558,24.839 28.5,23.034 28.5,21 28.5,18.588 27.171,16.497 25.219,15.375 25.706,14.712 26,13.885 26,13 26,10.792 24.208,9 22,9 z"
         id="path7526"
         style="fill:#ffffff;fill-opacity:1;fill-rule:nonzero;stroke:#babdb6;stroke-width:3.56856871;stroke-linecap:round;stroke-linejoin:miter;stroke-miterlimit:4;stroke-opacity:1;stroke-dasharray:none;stroke-dashoffset:10" />
    </g>
    <path
       d="m 360.70811,526.89331 5.3172,5.4687 -5.3172,5.4687"
       id="path7544"
       style="fill:none;stroke:#babdb6;stroke-width:0.99999994;stroke-linecap:butt;stroke-linejoin:miter;stroke-miterlimit:4;stroke-opacity:1;stroke-dasharray:none" />
    <path
       d="m 371.02171,526.89331 5.3171,5.4687 -5.3171,5.4687"
       id="path7546"
       style="fill:none;stroke:#babdb6;stroke-width:0.99999994;stroke-linecap:butt;stroke-linejoin:miter;stroke-miterlimit:4;stroke-opacity:1;stroke-dasharray:none" />
    <path
       d="m 381.33551,526.89331 5.3172,5.4687 -5.3172,5.4687"
       id="path7530"
       style="fill:none;stroke:#babdb6;stroke-width:0.99999994;stroke-linecap:butt;stroke-linejoin:miter;stroke-miterlimit:4;stroke-opacity:1;stroke-dasharray:none" />
    <path
       d="m 355.36081,537.38281 c -0.6398,-0.1485 -1.344,-0.7017 -1.6856,-1.3243 -0.1938,-0.3533 -0.2028,-0.4904 -0.2297,-3.5357 -0.024,-2.7308 -0.01,-3.2213 0.1217,-3.5539 0.2604,-0.6719 0.6401,-1.0915 1.2664,-1.3998 l 0.5819,-0.2865 2.5434,0 2.5434,0 2.4736,2.5435 2.4736,2.5434 -1.8588,1.9003 c -1.0223,1.0451 -2.1363,2.1956 -2.4755,2.5567 l -0.6168,0.6563 -2.3932,-0.01 c -1.3161,-0.01 -2.5512,-0.046 -2.7444,-0.091 z"
       id="path7678"
       style="fill:#babdb6;fill-opacity:1;stroke:#babdb6;stroke-width:0.99999994;stroke-linecap:round;stroke-miterlimit:4;stroke-opacity:1;stroke-dasharray:none;stroke-dashoffset:0" />
    <rect
       width="44.026154"
       height="11.02729"
       rx="3.9999995"
       ry="4"
       x="352.98694"
       y="526.84851"
       id="rect7518"
       style="fill:none;stroke:#888a85;stroke-width:0.99999994;stroke-linecap:round;stroke-miterlimit:4;stroke-opacity:1;stroke-dasharray:none;stroke-dashoffset:0" />
  </g>
</svg>
